<?xml version="1.0" standalone="no"?>
<!DOCTYPE svg PUBLIC "-//W3C//DTD SVG 20010904//EN"
 "http://www.w3.org/TR/2001/REC-SVG-20010904/DTD/svg10.dtd">
<svg version="1.0" xmlns="http://www.w3.org/2000/svg"
 width="460.000000pt" height="460.000000pt" viewBox="0 0 460.000000 460.000000"
 preserveAspectRatio="xMidYMid meet">
<metadata>
Created by potrace 1.14, written by Peter Selinger 2001-2017
</metadata>
<g transform="translate(0.000000,460.000000) scale(0.100000,-0.100000)"
fill="#000000" stroke="none">
<path d="M1643 4143 c-27 -62 -38 -100 -60 -198 -15 -69 -18 -130 -18 -433 0
-193 0 -352 -1 -352 -1 0 -52 -11 -115 -25 -104 -23 -377 -73 -524 -96 -180
-27 -216 -38 -177 -54 30 -11 322 -34 447 -35 66 0 184 5 262 12 79 6 145 10
147 7 2 -2 7 -16 11 -32 6 -21 4 -27 -10 -27 -47 0 -158 -93 -176 -148 -16
-48 -4 -91 39 -138 54 -60 152 -104 234 -104 37 0 37 0 48 -57 6 -32 18 -82
26 -111 13 -45 17 -51 28 -39 12 12 11 28 -5 107 -10 52 -17 95 -16 95 1 1 36
12 77 25 74 22 200 87 200 102 0 4 11 8 24 8 14 0 28 4 31 10 3 5 1 56 -5 112
-6 57 -13 127 -16 156 -4 34 -10 52 -17 49 -7 -2 -11 -17 -9 -35 4 -38 2 -39
-97 -11 -62 18 -95 21 -183 17 -75 -3 -105 -1 -101 6 4 6 0 5 -9 -2 -13 -10
-17 -10 -21 3 -8 18 12 23 174 41 44 4 156 25 259 47 30 6 60 12 67 12 6 0 15
4 19 8 4 4 21 7 38 7 17 0 56 7 86 15 30 8 74 15 97 15 23 0 53 4 67 9 13 6
48 12 78 15 29 2 94 13 143 24 50 11 104 20 120 21 17 0 46 3 65 6 103 17 188
24 302 25 122 0 128 -1 140 -22 11 -21 22 -51 91 -243 31 -87 70 -215 72 -235
0 -9 3 -20 7 -25 9 -17 49 -157 51 -179 0 -12 4 -23 7 -26 4 -3 19 -59 34
-125 15 -66 31 -131 36 -145 21 -64 50 -209 44 -223 -3 -10 -2 -17 3 -17 9 0
18 -39 48 -200 9 -47 24 -128 35 -180 45 -220 101 -552 109 -650 1 -8 4 -36 6
-62 2 -25 11 -109 19 -185 8 -76 15 -149 15 -163 -1 -14 4 -117 10 -230 6
-113 11 -224 11 -247 0 -36 3 -43 20 -43 29 0 28 35 -10 630 -20 305 -46 513
-85 695 -8 39 -19 93 -25 120 -5 28 -24 118 -41 200 -17 83 -35 173 -40 200
-5 28 -14 68 -19 90 -5 22 -16 72 -24 110 -35 160 -58 253 -71 295 -8 25 -31
106 -50 180 -20 74 -43 152 -51 174 -8 21 -14 40 -12 41 2 2 32 21 68 44 35
23 67 45 70 49 3 4 28 25 55 46 158 125 308 327 322 435 9 67 -8 86 -91 108
-95 24 -398 24 -530 0 -49 -10 -94 -17 -101 -17 -7 0 -17 25 -24 58 -19 98
-122 351 -174 429 -20 30 -27 33 -72 33 -69 0 -194 -32 -292 -74 l-81 -35 -64
42 c-239 155 -712 337 -879 337 -45 0 -46 -1 -66 -47z m57 -1245 c0 -6 -8 -20
-17 -30 -25 -28 -22 -82 8 -114 53 -56 123 -74 198 -49 72 23 104 64 99 124
-3 25 -8 53 -12 63 -6 14 -3 15 26 8 82 -21 78 -17 78 -84 0 -33 3 -71 6 -83
8 -29 -33 -66 -124 -115 -182 -96 -369 -90 -472 15 -17 17 -33 42 -36 54 -17
66 30 139 116 183 68 35 130 48 130 28z m186 -1 c1 -1 4 -12 8 -23 14 -47 -71
-77 -94 -34 -12 22 0 54 22 64 11 4 60 -1 64 -7z"/>
<path d="M2875 3095 c-33 -8 -73 -14 -90 -14 -16 -1 -43 -8 -59 -16 -23 -12
-32 -13 -44 -3 -11 9 -14 9 -9 1 5 -7 -2 -14 -15 -18 -13 -4 -53 -18 -90 -32
-37 -13 -69 -23 -71 -21 -2 2 -11 -3 -20 -11 -9 -7 -24 -11 -32 -7 -9 3 -13 2
-10 -4 3 -5 -7 -13 -22 -16 -15 -4 -47 -16 -70 -26 -66 -29 -103 1 -84 67 4
17 5 39 0 50 -6 16 -8 17 -8 3 -1 -9 -9 -21 -18 -27 -14 -7 -18 -22 -18 -59 0
-41 5 -54 24 -71 22 -19 41 -26 64 -22 4 0 7 -18 7 -42 0 -23 7 -53 16 -65 8
-12 12 -27 8 -34 -4 -6 -3 -8 4 -4 6 3 17 -3 25 -14 18 -26 101 -70 133 -70
13 0 24 -4 24 -9 0 -5 39 -9 87 -10 47 -1 89 -4 93 -6 4 -2 47 4 96 15 89 19
144 40 177 68 9 8 17 12 17 8 0 -5 19 13 43 39 45 51 75 117 71 156 -1 13 -3
33 -3 45 -1 11 -17 39 -36 61 -19 22 -31 44 -27 48 4 5 2 6 -3 2 -6 -3 -18 1
-28 8 -15 11 -8 13 45 14 40 1 68 6 77 16 14 13 3 15 -89 14 -58 0 -132 -7
-165 -14z m116 -57 c47 -37 79 -89 79 -131 0 -76 -68 -159 -168 -203 -235
-104 -530 -48 -557 106 -11 64 4 81 101 123 49 20 91 37 94 37 3 0 5 -27 5
-61 0 -54 3 -63 28 -85 42 -36 98 -47 165 -33 65 13 85 22 114 51 49 49 41
154 -15 189 -22 12 -26 20 -16 23 8 2 21 7 29 9 47 16 99 6 141 -25z m-243
-34 c12 -8 22 -21 22 -29 0 -8 -10 -21 -22 -29 -55 -39 -117 -2 -83 50 18 28
50 31 83 8z"/>
<path d="M753 2623 c-17 -9 -40 -31 -49 -49 -16 -30 -23 -34 -59 -34 -27 0
-53 -9 -77 -25 -20 -14 -47 -25 -59 -25 -29 0 -87 -63 -94 -103 -12 -61 56
-203 151 -316 16 -19 55 -66 87 -105 117 -143 353 -369 484 -463 65 -47 71
-84 23 -133 -34 -35 -39 -77 -14 -115 42 -65 228 -155 318 -155 25 0 48 -5 51
-11 12 -18 223 -118 313 -148 48 -15 123 -36 167 -45 126 -28 118 -20 137
-132 34 -199 67 -437 89 -651 10 -101 14 -113 31 -113 18 0 19 5 13 93 -3 50
-10 121 -15 157 -5 36 -14 106 -20 155 -23 186 -41 322 -50 368 -19 94 -23 91
81 82 90 -7 192 4 249 27 14 5 45 14 70 18 25 5 77 18 115 30 39 12 86 25 105
29 19 4 46 13 60 21 13 7 38 17 55 21 16 4 61 19 99 33 37 14 72 24 76 21 10
-6 24 34 16 43 -4 3 -21 0 -39 -7 -18 -7 -45 -16 -62 -21 -16 -5 -43 -13 -60
-19 -107 -39 -263 -86 -365 -111 -196 -47 -218 -50 -333 -39 -135 12 -153 14
-220 29 -155 35 -237 62 -268 87 -8 7 -20 13 -25 13 -5 0 -2 -5 6 -11 8 -6 11
-9 5 -7 -26 9 -132 59 -145 68 -8 6 -32 19 -52 29 -21 10 -36 20 -34 22 2 2
-16 5 -40 6 -69 2 -75 4 -142 35 -34 16 -60 33 -57 38 3 6 0 7 -8 4 -8 -3 -20
2 -27 11 -7 8 -18 15 -25 15 -13 0 -30 28 -26 43 1 5 -3 6 -8 3 -5 -4 -13 3
-16 15 -5 15 0 29 18 47 14 15 32 43 40 64 8 20 25 46 36 57 17 17 19 25 11
41 -6 11 -8 26 -4 32 4 7 3 8 -4 4 -8 -4 -16 3 -22 20 -13 33 7 60 50 69 32 7
70 -12 70 -34 0 -8 3 -11 6 -8 4 4 24 -8 44 -27 20 -18 51 -41 68 -52 18 -10
32 -21 32 -24 0 -11 54 -3 58 8 2 7 -9 18 -25 25 -40 18 -113 68 -113 79 0 15
54 30 93 25 43 -6 62 -22 97 -84 13 -24 26 -43 30 -43 10 0 70 -59 70 -69 0
-6 4 -11 9 -11 22 0 -2 -65 -36 -97 -13 -13 -21 -23 -18 -23 4 0 -3 -12 -15
-27 l-22 -28 49 -22 c60 -27 318 -63 455 -63 l100 0 146 74 c81 40 191 99 246
130 54 31 100 56 101 56 2 0 27 16 56 35 30 19 57 35 62 35 4 0 20 8 35 19 15
10 55 36 89 57 35 21 63 44 63 51 0 28 -26 21 -103 -30 -45 -29 -109 -69 -142
-87 -33 -18 -71 -41 -85 -50 -14 -10 -35 -21 -47 -24 -13 -4 -23 -11 -23 -16
0 -4 -12 -11 -26 -14 -14 -4 -43 -18 -65 -31 -21 -14 -45 -25 -54 -25 -8 0
-15 -4 -15 -8 0 -9 -101 -62 -117 -62 -6 0 -16 -6 -22 -14 -7 -8 -24 -17 -39
-21 -15 -4 -34 -13 -43 -21 -10 -9 -42 -18 -72 -21 l-55 -6 -7 49 c-8 62 -32
191 -50 269 -8 33 -19 85 -26 115 -6 30 -22 91 -35 136 -12 44 -25 91 -27 105
-2 13 -9 37 -16 54 -9 21 -9 31 -1 33 11 4 -26 42 -42 42 -12 0 -11 -4 22
-120 16 -58 30 -115 30 -127 l0 -23 -207 0 c-255 1 -462 14 -494 30 -72 39
-369 297 -369 321 0 4 29 28 65 53 126 90 159 185 92 258 -22 24 -46 39 -70
43 -36 7 -37 9 -37 49 -1 124 -106 199 -207 149z m136 -54 c36 -36 41 -47 41
-85 0 -39 -3 -46 -27 -55 -15 -5 -39 -11 -54 -12 -15 -1 -25 -6 -22 -11 3 -5
0 -7 -6 -5 -7 3 -12 9 -12 14 0 6 -7 18 -16 27 -8 9 -12 21 -9 26 3 5 -10 22
-29 36 -19 15 -35 31 -35 35 0 5 14 23 32 40 46 45 84 42 137 -10z m-155 -99
c49 -55 48 -87 -5 -129 -22 -18 -45 -45 -51 -59 -11 -25 -12 -23 -19 35 -7 57
-22 100 -39 113 -3 3 -14 16 -23 30 -16 23 -16 25 6 37 12 7 38 12 58 13 30 0
43 -7 73 -40z m-159 -42 c25 -27 55 -104 55 -139 0 -37 -32 -64 -57 -49 -22
15 -63 76 -63 95 0 20 -19 29 -25 13 -9 -22 23 -99 51 -124 27 -26 82 -32 101
-13 8 8 26 6 66 -7 50 -16 62 -16 114 -4 70 17 142 59 143 83 0 23 -8 22 -64
-8 -26 -14 -55 -25 -64 -25 -9 0 -26 -7 -36 -15 -35 -27 -86 -13 -86 23 0 16
70 82 88 82 6 0 12 5 12 11 0 6 9 9 19 6 13 -3 18 0 15 7 -7 18 113 46 147 34
45 -15 71 -47 64 -77 -4 -20 -3 -23 5 -11 8 11 9 6 5 -24 -5 -39 -41 -94 -62
-95 -6 -1 -13 -4 -15 -9 -6 -13 -95 -82 -107 -82 -18 0 -13 -38 7 -49 9 -6 13
-11 9 -11 -13 0 143 -149 223 -213 41 -33 77 -62 80 -66 12 -14 99 -50 140
-57 63 -10 105 -12 260 -13 74 0 192 -3 262 -7 l127 -7 21 -70 c12 -39 22 -85
23 -103 1 -17 5 -30 10 -27 4 2 7 -11 7 -29 0 -19 6 -58 14 -88 20 -79 18 -90
-15 -90 -15 0 -31 5 -34 11 -4 6 -13 8 -20 6 -12 -5 -164 15 -218 28 -21 6
-26 12 -21 24 3 9 8 34 11 57 5 38 2 43 -60 108 -37 37 -69 77 -73 89 -14 46
-53 66 -130 67 -52 0 -75 -4 -84 -15 -15 -18 -36 -19 -47 -2 -33 51 -130 38
-175 -24 -19 -25 -19 -26 -1 -60 10 -19 21 -36 25 -39 4 -3 3 -12 -3 -20 -7
-12 -11 -13 -18 -2 -4 8 -12 14 -17 15 -5 1 -8 6 -6 10 1 5 -2 6 -7 3 -24 -15
-469 402 -455 426 4 6 3 8 -4 4 -6 -3 -20 10 -33 30 -12 20 -31 46 -43 57 -35
36 -126 156 -126 166 0 5 -4 11 -9 13 -18 7 -47 86 -50 134 -1 42 2 55 23 77
30 33 68 31 101 -5z m1225 -1152 c41 -7 123 -19 183 -26 103 -12 107 -14 107
-37 0 -24 -1 -24 -72 -18 -94 8 -300 45 -312 56 -10 9 -1 39 11 39 4 0 42 -6
83 -14z"/>
</g>
</svg>
